<svg width="12" height="14" viewBox="0 0 12 14" fill="none" xmlns="http://www.w3.org/2000/svg">
<path d="M4 1.53971e-07C3.46957 1.53971e-07 2.96086 0.210714 2.58579 0.585787C2.21071 0.960859 2 1.46957 2 2V4.401C2.30907 4.22205 2.64779 4.10011 3 4.041V2C3 1.73478 3.10536 1.48043 3.29289 1.29289C3.48043 1.10536 3.73478 1 4 1H7V3.5C7 3.89782 7.15804 4.27936 7.43934 4.56066C7.72064 4.84196 8.10218 5 8.5 5H11V12C11 12.2652 10.8946 12.5196 10.7071 12.7071C10.5196 12.8946 10.2652 13 10 13H7.632C7.43103 13.3778 7.15787 13.7124 6.828 13.985L6.81 14H10C10.5304 14 11.0391 13.7893 11.4142 13.4142C11.7893 13.0391 12 12.5304 12 12V4.414C11.9996 4.01631 11.8414 3.63504 11.56 3.354L8.647 0.439C8.50764 0.299733 8.34222 0.189283 8.16017 0.113959C7.97812 0.0386344 7.78302 -8.9109e-05 7.586 1.53971e-07H4ZM10.793 4H8.5C8.36739 4 8.24021 3.94732 8.14645 3.85355C8.05268 3.75979 8 3.63261 8 3.5V1.207L10.793 4ZM5.5 7C5.5 7.53043 5.28929 8.03914 4.91421 8.41421C4.53914 8.78929 4.03043 9 3.5 9C2.96957 9 2.46086 8.78929 2.08579 8.41421C1.71071 8.03914 1.5 7.53043 1.5 7C1.5 6.46957 1.71071 5.96086 2.08579 5.58579C2.46086 5.21071 2.96957 5 3.5 5C4.03043 5 4.53914 5.21071 4.91421 5.58579C5.28929 5.96086 5.5 6.46957 5.5 7V7ZM7 11.5C7 12.745 6 14 3.5 14C1 14 0 12.75 0 11.5C0 11.1022 0.158035 10.7206 0.43934 10.4393C0.720644 10.158 1.10218 10 1.5 10H5.5C5.89782 10 6.27936 10.158 6.56066 10.4393C6.84196 10.7206 7 11.1022 7 11.5V11.5Z" fill="#F8F8F8"/>
</svg>
