<svg width="229" height="229" viewBox="0 0 229 229" fill="none" xmlns="http://www.w3.org/2000/svg">
<path d="M180.652 120.9L128.452 101.6C128.205 101.499 127.98 101.35 127.791 101.161C127.602 100.972 127.453 100.748 127.352 100.5L108.052 48.3C107.092 45.5934 105.317 43.2507 102.971 41.5939C100.626 39.9371 97.8243 39.0476 94.9524 39.0476C92.0806 39.0476 89.2792 39.9371 86.9334 41.5939C84.5877 43.2507 82.8126 45.5934 81.8524 48.3L62.5524 100.5C62.4518 100.748 62.3027 100.972 62.1138 101.161C61.9248 101.35 61.7 101.499 61.4524 101.6L9.25242 120.9C6.54584 121.86 4.20313 123.635 2.54634 125.981C0.889539 128.327 0 131.128 0 134C0 136.872 0.889539 139.673 2.54634 142.019C4.20313 144.365 6.54584 146.14 9.25242 147.1L61.4524 166.4C61.7 166.501 61.9248 166.65 62.1138 166.839C62.3027 167.028 62.4518 167.252 62.5524 167.5L81.8524 219.7C82.8126 222.407 84.5877 224.749 86.9334 226.406C89.2792 228.063 92.0806 228.952 94.9524 228.952C97.8243 228.952 100.626 228.063 102.971 226.406C105.317 224.749 107.092 222.407 108.052 219.7L127.352 167.5C127.453 167.252 127.602 167.028 127.791 166.839C127.98 166.65 128.205 166.501 128.452 166.4L180.652 147.1C183.359 146.14 185.702 144.365 187.359 142.019C189.015 139.673 189.905 136.872 189.905 134C189.905 131.128 189.015 128.327 187.359 125.981C185.702 123.635 183.359 121.86 180.652 120.9ZM176.552 135.9L124.352 155.1C122.44 155.782 120.704 156.881 119.268 158.316C117.833 159.752 116.735 161.488 116.052 163.4L96.8524 215.6C96.7209 216 96.4664 216.349 96.1252 216.596C95.7841 216.843 95.3736 216.975 94.9524 216.975C94.5312 216.975 94.1208 216.843 93.7796 216.596C93.4384 216.349 93.1839 216 93.0524 215.6L73.8524 163.4C73.1703 161.488 72.0718 159.752 70.6364 158.316C69.2009 156.881 67.4644 155.782 65.5524 155.1L13.3524 135.9C12.9523 135.768 12.6039 135.514 12.3569 135.173C12.1099 134.832 11.9769 134.421 11.9769 134C11.9769 133.579 12.1099 133.168 12.3569 132.827C12.6039 132.486 12.9523 132.232 13.3524 132.1L65.5524 112.9C67.4644 112.218 69.2009 111.119 70.6364 109.684C72.0718 108.248 73.1703 106.512 73.8524 104.6L93.0524 52.4C93.1839 51.9999 93.4384 51.6515 93.7796 51.4045C94.1208 51.1575 94.5312 51.0245 94.9524 51.0245C95.3736 51.0245 95.7841 51.1575 96.1252 51.4045C96.4664 51.6515 96.7209 51.9999 96.8524 52.4L116.052 104.6C116.735 106.512 117.833 108.248 119.268 109.684C120.704 111.119 122.44 112.218 124.352 112.9L176.552 132.1C176.953 132.232 177.301 132.486 177.548 132.827C177.795 133.168 177.928 133.579 177.928 134C177.928 134.421 177.795 134.832 177.548 135.173C177.301 135.514 176.953 135.768 176.552 135.9V135.9ZM128.952 30C128.952 28.4087 129.585 26.8826 130.71 25.7574C131.835 24.6321 133.361 24 134.952 24H152.952V6C152.952 4.4087 153.585 2.88258 154.71 1.75736C155.835 0.632141 157.361 0 158.952 0C160.544 0 162.07 0.632141 163.195 1.75736C164.32 2.88258 164.952 4.4087 164.952 6V24H182.952C184.544 24 186.07 24.6321 187.195 25.7574C188.32 26.8826 188.952 28.4087 188.952 30C188.952 31.5913 188.32 33.1174 187.195 34.2426C186.07 35.3679 184.544 36 182.952 36H164.952V54C164.952 55.5913 164.32 57.1174 163.195 58.2426C162.07 59.3679 160.544 60 158.952 60C157.361 60 155.835 59.3679 154.71 58.2426C153.585 57.1174 152.952 55.5913 152.952 54V36H134.952C133.361 36 131.835 35.3679 130.71 34.2426C129.585 33.1174 128.952 31.5913 128.952 30ZM228.952 78C228.952 79.5913 228.32 81.1174 227.195 82.2426C226.07 83.3679 224.544 84 222.952 84H212.952V94C212.952 95.5913 212.32 97.1174 211.195 98.2426C210.07 99.3679 208.544 100 206.952 100C205.361 100 203.835 99.3679 202.71 98.2426C201.585 97.1174 200.952 95.5913 200.952 94V84H190.952C189.361 84 187.835 83.3679 186.71 82.2426C185.585 81.1174 184.952 79.5913 184.952 78C184.952 76.4087 185.585 74.8826 186.71 73.7574C187.835 72.6321 189.361 72 190.952 72H200.952V62C200.952 60.4087 201.585 58.8826 202.71 57.7574C203.835 56.6321 205.361 56 206.952 56C208.544 56 210.07 56.6321 211.195 57.7574C212.32 58.8826 212.952 60.4087 212.952 62V72H222.952C224.544 72 226.07 72.6321 227.195 73.7574C228.32 74.8826 228.952 76.4087 228.952 78Z" fill="#9747FF"/>
</svg>
